<mxfile host="app.diagrams.net" modified="2022-04-18T07:37:51.000Z" agent="5.0 (Windows NT 10.0; Win64; x64) AppleWebKit/537.36 (KHTML, like Gecko) Chrome/100.0.4896.88 Safari/537.36" etag="f536ywWMT0h_3e4s_bGO" version="17.4.3" type="github">
  <diagram id="0J4tFUpqffA9D1Z7SYaG" name="Page-1">
    <mxGraphModel dx="1865" dy="547" grid="1" gridSize="10" guides="1" tooltips="1" connect="1" arrows="1" fold="1" page="1" pageScale="1" pageWidth="827" pageHeight="1169" math="0" shadow="0">
      <root>
        <mxCell id="0" />
        <mxCell id="1" parent="0" />
        <mxCell id="oRuydW940FplMV_MUn1F-3" value="" style="rounded=0;whiteSpace=wrap;html=1;dashed=1;fillColor=none;" parent="1" vertex="1">
          <mxGeometry x="120" y="326.5" width="690" height="363.5" as="geometry" />
        </mxCell>
        <mxCell id="oRuydW940FplMV_MUn1F-9" style="edgeStyle=orthogonalEdgeStyle;rounded=0;orthogonalLoop=1;jettySize=auto;html=1;exitX=1;exitY=0.5;exitDx=0;exitDy=0;entryX=0;entryY=0.5;entryDx=0;entryDy=0;" parent="1" source="oRuydW940FplMV_MUn1F-4" target="oRuydW940FplMV_MUn1F-5" edge="1">
          <mxGeometry relative="1" as="geometry" />
        </mxCell>
        <mxCell id="oRuydW940FplMV_MUn1F-4" value="日志打印" style="rounded=0;whiteSpace=wrap;html=1;" parent="1" vertex="1">
          <mxGeometry x="130" y="394" width="70" height="40" as="geometry" />
        </mxCell>
        <mxCell id="oRuydW940FplMV_MUn1F-10" style="edgeStyle=orthogonalEdgeStyle;rounded=0;orthogonalLoop=1;jettySize=auto;html=1;exitX=1;exitY=0.5;exitDx=0;exitDy=0;entryX=0;entryY=0.5;entryDx=0;entryDy=0;" parent="1" source="oRuydW940FplMV_MUn1F-5" target="oRuydW940FplMV_MUn1F-6" edge="1">
          <mxGeometry relative="1" as="geometry" />
        </mxCell>
        <mxCell id="oRuydW940FplMV_MUn1F-5" value="路径重写" style="rounded=0;whiteSpace=wrap;html=1;" parent="1" vertex="1">
          <mxGeometry x="240" y="394" width="70" height="40" as="geometry" />
        </mxCell>
        <mxCell id="oRuydW940FplMV_MUn1F-11" style="edgeStyle=orthogonalEdgeStyle;rounded=0;orthogonalLoop=1;jettySize=auto;html=1;exitX=1;exitY=0.5;exitDx=0;exitDy=0;entryX=0;entryY=0.5;entryDx=0;entryDy=0;" parent="1" source="oRuydW940FplMV_MUn1F-6" target="oRuydW940FplMV_MUn1F-8" edge="1">
          <mxGeometry relative="1" as="geometry" />
        </mxCell>
        <mxCell id="oRuydW940FplMV_MUn1F-6" value="超时设置" style="rounded=0;whiteSpace=wrap;html=1;" parent="1" vertex="1">
          <mxGeometry x="344" y="394" width="70" height="40" as="geometry" />
        </mxCell>
        <mxCell id="oRuydW940FplMV_MUn1F-7" value="middleware" style="text;html=1;strokeColor=none;fillColor=none;align=center;verticalAlign=middle;whiteSpace=wrap;rounded=0;fontStyle=1;fontSize=14;" parent="1" vertex="1">
          <mxGeometry x="350" y="334" width="60" height="30" as="geometry" />
        </mxCell>
        <mxCell id="oRuydW940FplMV_MUn1F-93" style="edgeStyle=orthogonalEdgeStyle;rounded=0;orthogonalLoop=1;jettySize=auto;html=1;exitX=0.5;exitY=1;exitDx=0;exitDy=0;entryX=0.5;entryY=0;entryDx=0;entryDy=0;fontSize=13;" parent="1" source="oRuydW940FplMV_MUn1F-8" target="oRuydW940FplMV_MUn1F-92" edge="1">
          <mxGeometry relative="1" as="geometry" />
        </mxCell>
        <mxCell id="oRuydW940FplMV_MUn1F-8" value="服务调用控制" style="rounded=0;whiteSpace=wrap;html=1;" parent="1" vertex="1">
          <mxGeometry x="450" y="394" width="80" height="40" as="geometry" />
        </mxCell>
        <mxCell id="isv2t2CusdyDPksusqRq-3" style="edgeStyle=orthogonalEdgeStyle;rounded=0;orthogonalLoop=1;jettySize=auto;html=1;exitX=0;exitY=0.5;exitDx=0;exitDy=0;entryX=1;entryY=0.5;entryDx=0;entryDy=0;" parent="1" source="oRuydW940FplMV_MUn1F-26" target="oRuydW940FplMV_MUn1F-71" edge="1">
          <mxGeometry relative="1" as="geometry" />
        </mxCell>
        <mxCell id="isv2t2CusdyDPksusqRq-4" value="否" style="edgeLabel;html=1;align=center;verticalAlign=middle;resizable=0;points=[];" parent="isv2t2CusdyDPksusqRq-3" vertex="1" connectable="0">
          <mxGeometry x="-0.2283" y="1" relative="1" as="geometry">
            <mxPoint as="offset" />
          </mxGeometry>
        </mxCell>
        <mxCell id="isv2t2CusdyDPksusqRq-5" style="edgeStyle=orthogonalEdgeStyle;rounded=0;orthogonalLoop=1;jettySize=auto;html=1;exitX=1;exitY=0.5;exitDx=0;exitDy=0;entryX=0;entryY=0.5;entryDx=0;entryDy=0;" parent="1" source="oRuydW940FplMV_MUn1F-26" target="oRuydW940FplMV_MUn1F-41" edge="1">
          <mxGeometry relative="1" as="geometry">
            <Array as="points">
              <mxPoint x="560" y="623" />
              <mxPoint x="560" y="414" />
            </Array>
          </mxGeometry>
        </mxCell>
        <mxCell id="isv2t2CusdyDPksusqRq-7" value="是" style="edgeLabel;html=1;align=center;verticalAlign=middle;resizable=0;points=[];" parent="isv2t2CusdyDPksusqRq-5" vertex="1" connectable="0">
          <mxGeometry x="-0.7679" y="-1" relative="1" as="geometry">
            <mxPoint x="-14" y="-1" as="offset" />
          </mxGeometry>
        </mxCell>
        <mxCell id="oRuydW940FplMV_MUn1F-26" value="&lt;font style=&quot;font-size: 13px&quot;&gt;是否mock&lt;/font&gt;" style="rhombus;whiteSpace=wrap;html=1;fontSize=14;fillColor=none;" parent="1" vertex="1">
          <mxGeometry x="369" y="590" width="90" height="65" as="geometry" />
        </mxCell>
        <mxCell id="isv2t2CusdyDPksusqRq-10" style="edgeStyle=orthogonalEdgeStyle;rounded=0;orthogonalLoop=1;jettySize=auto;html=1;exitX=0.5;exitY=1;exitDx=0;exitDy=0;entryX=0.5;entryY=0;entryDx=0;entryDy=0;" parent="1" source="oRuydW940FplMV_MUn1F-41" target="oRuydW940FplMV_MUn1F-23" edge="1">
          <mxGeometry relative="1" as="geometry" />
        </mxCell>
        <mxCell id="oRuydW940FplMV_MUn1F-41" value="路由模块" style="rounded=0;whiteSpace=wrap;html=1;fillColor=default;" parent="1" vertex="1">
          <mxGeometry x="587" y="394" width="80" height="40" as="geometry" />
        </mxCell>
        <mxCell id="oRuydW940FplMV_MUn1F-44" style="edgeStyle=orthogonalEdgeStyle;rounded=0;orthogonalLoop=1;jettySize=auto;html=1;exitX=1;exitY=0.5;exitDx=0;exitDy=0;fontSize=14;" parent="1" source="oRuydW940FplMV_MUn1F-41" target="oRuydW940FplMV_MUn1F-42" edge="1">
          <mxGeometry relative="1" as="geometry" />
        </mxCell>
        <mxCell id="isv2t2CusdyDPksusqRq-8" style="edgeStyle=orthogonalEdgeStyle;rounded=0;orthogonalLoop=1;jettySize=auto;html=1;exitX=1;exitY=0.5;exitDx=0;exitDy=0;" parent="1" source="oRuydW940FplMV_MUn1F-42" edge="1">
          <mxGeometry relative="1" as="geometry">
            <mxPoint x="800" y="230" as="targetPoint" />
          </mxGeometry>
        </mxCell>
        <mxCell id="oRuydW940FplMV_MUn1F-42" value="错误处理" style="rounded=0;whiteSpace=wrap;html=1;" parent="1" vertex="1">
          <mxGeometry x="698" y="394" width="80" height="40" as="geometry" />
        </mxCell>
        <mxCell id="oRuydW940FplMV_MUn1F-67" value="" style="group" parent="1" vertex="1" connectable="0">
          <mxGeometry x="472" y="750" width="310" height="186" as="geometry" />
        </mxCell>
        <mxCell id="oRuydW940FplMV_MUn1F-23" value="" style="rounded=0;whiteSpace=wrap;html=1;dashed=1;fontSize=14;fillColor=none;" parent="oRuydW940FplMV_MUn1F-67" vertex="1">
          <mxGeometry width="310" height="186" as="geometry" />
        </mxCell>
        <mxCell id="oRuydW940FplMV_MUn1F-13" value="ocr" style="rounded=0;whiteSpace=wrap;html=1;" parent="oRuydW940FplMV_MUn1F-67" vertex="1">
          <mxGeometry x="29" y="70" width="70" height="40" as="geometry" />
        </mxCell>
        <mxCell id="oRuydW940FplMV_MUn1F-14" value="风控" style="rounded=0;whiteSpace=wrap;html=1;" parent="oRuydW940FplMV_MUn1F-67" vertex="1">
          <mxGeometry x="29" y="126" width="70" height="40" as="geometry" />
        </mxCell>
        <mxCell id="oRuydW940FplMV_MUn1F-15" value="支付" style="rounded=0;whiteSpace=wrap;html=1;" parent="oRuydW940FplMV_MUn1F-67" vertex="1">
          <mxGeometry x="120" y="70" width="70" height="40" as="geometry" />
        </mxCell>
        <mxCell id="oRuydW940FplMV_MUn1F-16" value="签章" style="rounded=0;whiteSpace=wrap;html=1;" parent="oRuydW940FplMV_MUn1F-67" vertex="1">
          <mxGeometry x="210" y="70" width="70" height="40" as="geometry" />
        </mxCell>
        <mxCell id="oRuydW940FplMV_MUn1F-17" value="短信" style="rounded=0;whiteSpace=wrap;html=1;" parent="oRuydW940FplMV_MUn1F-67" vertex="1">
          <mxGeometry x="120" y="128" width="70" height="40" as="geometry" />
        </mxCell>
        <mxCell id="oRuydW940FplMV_MUn1F-25" value="路由 - mock数据" style="text;html=1;strokeColor=none;fillColor=none;align=center;verticalAlign=middle;whiteSpace=wrap;rounded=0;dashed=1;fontSize=14;fontStyle=1" parent="oRuydW940FplMV_MUn1F-67" vertex="1">
          <mxGeometry x="89.5" y="16" width="131" height="30" as="geometry" />
        </mxCell>
        <mxCell id="oRuydW940FplMV_MUn1F-46" value="银企直联" style="rounded=0;whiteSpace=wrap;html=1;fillColor=#b0e3e6;strokeColor=#0e8088;" parent="oRuydW940FplMV_MUn1F-67" vertex="1">
          <mxGeometry x="210" y="128" width="70" height="40" as="geometry" />
        </mxCell>
        <mxCell id="oRuydW940FplMV_MUn1F-72" style="edgeStyle=orthogonalEdgeStyle;rounded=0;orthogonalLoop=1;jettySize=auto;html=1;exitX=0.5;exitY=1;exitDx=0;exitDy=0;entryX=0.5;entryY=0;entryDx=0;entryDy=0;fontSize=13;" parent="1" source="oRuydW940FplMV_MUn1F-71" target="oRuydW940FplMV_MUn1F-58" edge="1">
          <mxGeometry relative="1" as="geometry" />
        </mxCell>
        <mxCell id="isv2t2CusdyDPksusqRq-18" style="edgeStyle=orthogonalEdgeStyle;rounded=0;orthogonalLoop=1;jettySize=auto;html=1;exitX=0.5;exitY=0;exitDx=0;exitDy=0;dashed=1;" parent="1" source="oRuydW940FplMV_MUn1F-71" edge="1">
          <mxGeometry relative="1" as="geometry">
            <mxPoint x="510" y="230" as="targetPoint" />
            <Array as="points">
              <mxPoint x="230" y="570" />
              <mxPoint x="510" y="570" />
            </Array>
          </mxGeometry>
        </mxCell>
        <mxCell id="3PkvSZ-abfP1WpuchXNn-1" style="edgeStyle=orthogonalEdgeStyle;rounded=0;orthogonalLoop=1;jettySize=auto;html=1;exitX=0;exitY=0.5;exitDx=0;exitDy=0;entryX=0;entryY=0.25;entryDx=0;entryDy=0;" edge="1" parent="1" source="oRuydW940FplMV_MUn1F-71" target="oRuydW940FplMV_MUn1F-89">
          <mxGeometry relative="1" as="geometry">
            <Array as="points">
              <mxPoint x="80" y="623" />
              <mxPoint x="80" y="1033" />
            </Array>
          </mxGeometry>
        </mxCell>
        <mxCell id="3PkvSZ-abfP1WpuchXNn-2" value="是否开启代理" style="edgeLabel;html=1;align=center;verticalAlign=middle;resizable=0;points=[];" vertex="1" connectable="0" parent="3PkvSZ-abfP1WpuchXNn-1">
          <mxGeometry x="0.0438" y="2" relative="1" as="geometry">
            <mxPoint x="-7" as="offset" />
          </mxGeometry>
        </mxCell>
        <mxCell id="oRuydW940FplMV_MUn1F-71" value="proxy" style="rounded=0;whiteSpace=wrap;html=1;" parent="1" vertex="1">
          <mxGeometry x="205" y="602.5" width="80" height="40" as="geometry" />
        </mxCell>
        <mxCell id="oRuydW940FplMV_MUn1F-77" value="" style="endArrow=classic;html=1;rounded=0;fontSize=13;edgeStyle=orthogonalEdgeStyle;entryX=1;entryY=0.25;entryDx=0;entryDy=0;" parent="1" target="vxs_oAUpM03B7NSQfsva-3" edge="1">
          <mxGeometry width="50" height="50" relative="1" as="geometry">
            <mxPoint x="810" y="230" as="sourcePoint" />
            <mxPoint x="20" y="320" as="targetPoint" />
            <Array as="points">
              <mxPoint x="110" y="230" />
              <mxPoint x="110" y="396" />
            </Array>
          </mxGeometry>
        </mxCell>
        <mxCell id="oRuydW940FplMV_MUn1F-80" value="" style="endArrow=classic;html=1;rounded=0;fontSize=13;" parent="1" edge="1">
          <mxGeometry width="50" height="50" relative="1" as="geometry">
            <mxPoint x="220" y="414" as="sourcePoint" />
            <mxPoint x="220" y="230" as="targetPoint" />
          </mxGeometry>
        </mxCell>
        <mxCell id="oRuydW940FplMV_MUn1F-81" value="" style="endArrow=classic;html=1;rounded=0;fontSize=13;" parent="1" edge="1">
          <mxGeometry width="50" height="50" relative="1" as="geometry">
            <mxPoint x="330" y="414" as="sourcePoint" />
            <mxPoint x="330" y="230" as="targetPoint" />
          </mxGeometry>
        </mxCell>
        <mxCell id="oRuydW940FplMV_MUn1F-82" value="" style="endArrow=classic;html=1;rounded=0;fontSize=13;" parent="1" edge="1">
          <mxGeometry width="50" height="50" relative="1" as="geometry">
            <mxPoint x="430" y="414" as="sourcePoint" />
            <mxPoint x="430" y="230" as="targetPoint" />
          </mxGeometry>
        </mxCell>
        <mxCell id="oRuydW940FplMV_MUn1F-84" value="" style="endArrow=classic;html=1;rounded=0;fontSize=13;" parent="1" edge="1">
          <mxGeometry width="50" height="50" relative="1" as="geometry">
            <mxPoint x="680" y="414" as="sourcePoint" />
            <mxPoint x="680" y="230" as="targetPoint" />
          </mxGeometry>
        </mxCell>
        <mxCell id="oRuydW940FplMV_MUn1F-87" value="响应" style="text;html=1;strokeColor=none;fillColor=none;align=center;verticalAlign=middle;whiteSpace=wrap;rounded=0;fontStyle=1" parent="1" vertex="1">
          <mxGeometry x="40" y="354" width="60" height="30" as="geometry" />
        </mxCell>
        <mxCell id="oRuydW940FplMV_MUn1F-95" style="edgeStyle=orthogonalEdgeStyle;rounded=0;orthogonalLoop=1;jettySize=auto;html=1;exitX=0.5;exitY=1;exitDx=0;exitDy=0;entryX=0.5;entryY=0;entryDx=0;entryDy=0;fontSize=13;" parent="1" source="oRuydW940FplMV_MUn1F-92" target="oRuydW940FplMV_MUn1F-26" edge="1">
          <mxGeometry relative="1" as="geometry" />
        </mxCell>
        <mxCell id="isv2t2CusdyDPksusqRq-14" style="edgeStyle=orthogonalEdgeStyle;rounded=0;orthogonalLoop=1;jettySize=auto;html=1;exitX=0;exitY=0.5;exitDx=0;exitDy=0;entryX=0;entryY=0.5;entryDx=0;entryDy=0;" parent="1" source="oRuydW940FplMV_MUn1F-92" target="oRuydW940FplMV_MUn1F-89" edge="1">
          <mxGeometry relative="1" as="geometry">
            <Array as="points">
              <mxPoint x="30" y="508" />
              <mxPoint x="30" y="1065" />
            </Array>
          </mxGeometry>
        </mxCell>
        <mxCell id="oRuydW940FplMV_MUn1F-92" value="数据库读取" style="rounded=0;whiteSpace=wrap;html=1;" parent="1" vertex="1">
          <mxGeometry x="190" y="488.25" width="70" height="40" as="geometry" />
        </mxCell>
        <mxCell id="isv2t2CusdyDPksusqRq-1" value="" style="group" parent="1" vertex="1" connectable="0">
          <mxGeometry x="120" y="1000" width="260" height="130" as="geometry" />
        </mxCell>
        <mxCell id="oRuydW940FplMV_MUn1F-88" value="" style="aspect=fixed;html=1;points=[];align=center;image;fontSize=12;image=img/lib/azure2/databases/Azure_Database_MySQL_Server.svg;dashed=1;fillColor=none;" parent="isv2t2CusdyDPksusqRq-1" vertex="1">
          <mxGeometry x="171" y="33" width="48" height="64" as="geometry" />
        </mxCell>
        <mxCell id="oRuydW940FplMV_MUn1F-89" value="" style="rounded=0;whiteSpace=wrap;html=1;dashed=1;fontSize=13;fillColor=none;" parent="isv2t2CusdyDPksusqRq-1" vertex="1">
          <mxGeometry width="260" height="130" as="geometry" />
        </mxCell>
        <mxCell id="oRuydW940FplMV_MUn1F-91" value="1. 响应报文&lt;br&gt;2. 环境参数配置&lt;br&gt;3. mock开关" style="text;html=1;strokeColor=none;fillColor=none;align=left;verticalAlign=middle;whiteSpace=wrap;rounded=0;dashed=1;fontSize=13;" parent="isv2t2CusdyDPksusqRq-1" vertex="1">
          <mxGeometry x="14" y="23" width="121" height="80" as="geometry" />
        </mxCell>
        <mxCell id="isv2t2CusdyDPksusqRq-13" style="edgeStyle=orthogonalEdgeStyle;rounded=0;orthogonalLoop=1;jettySize=auto;html=1;exitX=0.5;exitY=1;exitDx=0;exitDy=0;entryX=1;entryY=0.5;entryDx=0;entryDy=0;" parent="1" source="oRuydW940FplMV_MUn1F-23" target="oRuydW940FplMV_MUn1F-89" edge="1">
          <mxGeometry relative="1" as="geometry" />
        </mxCell>
        <mxCell id="isv2t2CusdyDPksusqRq-19" style="edgeStyle=orthogonalEdgeStyle;rounded=0;orthogonalLoop=1;jettySize=auto;html=1;dashed=1;" parent="1" edge="1">
          <mxGeometry relative="1" as="geometry">
            <mxPoint x="650" y="230" as="targetPoint" />
            <mxPoint x="650" y="750" as="sourcePoint" />
            <Array as="points">
              <mxPoint x="650" y="750" />
            </Array>
          </mxGeometry>
        </mxCell>
        <mxCell id="NGIEsyrpociLnT4s3KL6-5" value="" style="group" parent="1" vertex="1" connectable="0">
          <mxGeometry x="120" y="749.5" width="251" height="186.5" as="geometry" />
        </mxCell>
        <mxCell id="oRuydW940FplMV_MUn1F-33" value="支付" style="rounded=0;whiteSpace=wrap;html=1;movable=1;resizable=1;rotatable=1;deletable=1;editable=1;connectable=1;" parent="NGIEsyrpociLnT4s3KL6-5" vertex="1">
          <mxGeometry x="30.5" y="59" width="50" height="40" as="geometry" />
        </mxCell>
        <mxCell id="oRuydW940FplMV_MUn1F-34" value="签章" style="rounded=0;whiteSpace=wrap;html=1;movable=1;resizable=1;rotatable=1;deletable=1;editable=1;connectable=1;" parent="NGIEsyrpociLnT4s3KL6-5" vertex="1">
          <mxGeometry x="170.5" y="59" width="50" height="40" as="geometry" />
        </mxCell>
        <mxCell id="oRuydW940FplMV_MUn1F-36" value="&amp;nbsp;风控" style="rounded=0;whiteSpace=wrap;html=1;movable=1;resizable=1;rotatable=1;deletable=1;editable=1;connectable=1;" parent="NGIEsyrpociLnT4s3KL6-5" vertex="1">
          <mxGeometry x="30.5" y="119" width="50" height="40" as="geometry" />
        </mxCell>
        <mxCell id="oRuydW940FplMV_MUn1F-39" value="短信" style="rounded=0;whiteSpace=wrap;html=1;movable=1;resizable=1;rotatable=1;deletable=1;editable=1;connectable=1;" parent="NGIEsyrpociLnT4s3KL6-5" vertex="1">
          <mxGeometry x="100.5" y="59" width="50" height="40" as="geometry" />
        </mxCell>
        <mxCell id="oRuydW940FplMV_MUn1F-53" value="ocr" style="rounded=0;whiteSpace=wrap;html=1;movable=1;resizable=1;rotatable=1;deletable=1;editable=1;connectable=1;" parent="NGIEsyrpociLnT4s3KL6-5" vertex="1">
          <mxGeometry x="100.5" y="119" width="50" height="40" as="geometry" />
        </mxCell>
        <mxCell id="oRuydW940FplMV_MUn1F-58" value="" style="rounded=0;whiteSpace=wrap;html=1;dashed=1;fontSize=13;fillColor=none;" parent="NGIEsyrpociLnT4s3KL6-5" vertex="1">
          <mxGeometry width="251" height="186.5" as="geometry" />
        </mxCell>
        <mxCell id="oRuydW940FplMV_MUn1F-54" value="银企直联" style="rounded=0;whiteSpace=wrap;html=1;movable=1;resizable=1;rotatable=1;deletable=1;editable=1;connectable=1;fillColor=#b0e3e6;strokeColor=#0e8088;" parent="NGIEsyrpociLnT4s3KL6-5" vertex="1">
          <mxGeometry x="170.5" y="119" width="50" height="40" as="geometry" />
        </mxCell>
        <mxCell id="oRuydW940FplMV_MUn1F-63" value="三方服务" style="text;html=1;strokeColor=none;fillColor=none;align=center;verticalAlign=middle;whiteSpace=wrap;rounded=0;dashed=1;fontSize=13;fontStyle=1" parent="NGIEsyrpociLnT4s3KL6-5" vertex="1">
          <mxGeometry x="96" y="10" width="60" height="30" as="geometry" />
        </mxCell>
        <mxCell id="vxs_oAUpM03B7NSQfsva-12" style="edgeStyle=orthogonalEdgeStyle;rounded=0;orthogonalLoop=1;jettySize=auto;html=1;exitX=1;exitY=0.75;exitDx=0;exitDy=0;entryX=0;entryY=0.5;entryDx=0;entryDy=0;" parent="1" source="vxs_oAUpM03B7NSQfsva-3" target="oRuydW940FplMV_MUn1F-4" edge="1">
          <mxGeometry relative="1" as="geometry" />
        </mxCell>
        <mxCell id="vxs_oAUpM03B7NSQfsva-17" style="rounded=0;orthogonalLoop=1;jettySize=auto;html=1;exitX=0.75;exitY=0;exitDx=0;exitDy=0;entryX=0.75;entryY=1;entryDx=0;entryDy=0;" parent="1" source="vxs_oAUpM03B7NSQfsva-3" target="vxs_oAUpM03B7NSQfsva-13" edge="1">
          <mxGeometry relative="1" as="geometry" />
        </mxCell>
        <mxCell id="vxs_oAUpM03B7NSQfsva-3" value="nginx" style="rounded=0;whiteSpace=wrap;html=1;" parent="1" vertex="1">
          <mxGeometry x="-10" y="387" width="60" height="36" as="geometry" />
        </mxCell>
        <mxCell id="vxs_oAUpM03B7NSQfsva-7" value="请求" style="text;html=1;strokeColor=none;fillColor=none;align=center;verticalAlign=middle;whiteSpace=wrap;rounded=0;fontStyle=1" parent="1" vertex="1">
          <mxGeometry x="40" y="424" width="60" height="30" as="geometry" />
        </mxCell>
        <mxCell id="vxs_oAUpM03B7NSQfsva-9" style="edgeStyle=orthogonalEdgeStyle;rounded=0;orthogonalLoop=1;jettySize=auto;html=1;entryX=0.25;entryY=1;entryDx=0;entryDy=0;" parent="1" target="oRuydW940FplMV_MUn1F-71" edge="1">
          <mxGeometry relative="1" as="geometry">
            <mxPoint x="225" y="750" as="sourcePoint" />
            <Array as="points">
              <mxPoint x="225" y="750" />
            </Array>
          </mxGeometry>
        </mxCell>
        <mxCell id="vxs_oAUpM03B7NSQfsva-22" style="edgeStyle=none;rounded=0;orthogonalLoop=1;jettySize=auto;html=1;exitX=0.25;exitY=1;exitDx=0;exitDy=0;entryX=0.25;entryY=0;entryDx=0;entryDy=0;" parent="1" source="vxs_oAUpM03B7NSQfsva-13" target="vxs_oAUpM03B7NSQfsva-3" edge="1">
          <mxGeometry relative="1" as="geometry" />
        </mxCell>
        <mxCell id="vxs_oAUpM03B7NSQfsva-13" value="核心" style="rounded=0;whiteSpace=wrap;html=1;" parent="1" vertex="1">
          <mxGeometry x="-10" y="300" width="60" height="40" as="geometry" />
        </mxCell>
        <mxCell id="vxs_oAUpM03B7NSQfsva-19" value="" style="endArrow=classic;html=1;rounded=0;" parent="1" edge="1">
          <mxGeometry width="50" height="50" relative="1" as="geometry">
            <mxPoint x="5" y="260" as="sourcePoint" />
            <mxPoint x="5" y="300" as="targetPoint" />
          </mxGeometry>
        </mxCell>
        <mxCell id="vxs_oAUpM03B7NSQfsva-20" value="" style="endArrow=classic;html=1;rounded=0;" parent="1" edge="1">
          <mxGeometry width="50" height="50" relative="1" as="geometry">
            <mxPoint x="35" y="300" as="sourcePoint" />
            <mxPoint x="35" y="260" as="targetPoint" />
          </mxGeometry>
        </mxCell>
        <mxCell id="vxs_oAUpM03B7NSQfsva-24" value="" style="sketch=0;outlineConnect=0;fontColor=#232F3E;gradientColor=none;strokeColor=#232F3E;fillColor=none;dashed=0;verticalLabelPosition=bottom;verticalAlign=top;align=center;html=1;fontSize=12;fontStyle=0;aspect=fixed;shape=mxgraph.aws4.resourceIcon;resIcon=mxgraph.aws4.user;" parent="1" vertex="1">
          <mxGeometry x="-5" y="201" width="50" height="50" as="geometry" />
        </mxCell>
      </root>
    </mxGraphModel>
  </diagram>
</mxfile>
